<svg width="51" height="51" viewBox="0 0 51 51" fill="none" xmlns="http://www.w3.org/2000/svg">
<path d="M14.3035 47.7898C25.6582 54.3833 40.9193 48.9504 47.4749 37.5302C54.0306 26.11 50.1402 11.5071 38.7855 4.91364C27.4308 -1.67981 10.102 -1.12467 3.54634 10.2955C-3.0093 21.7157 2.94886 41.1964 14.3035 47.7898Z" fill="url(#paint0_linear)"/>
<path d="M21.2416 8.6768C19.7824 8.6768 18.4672 9.0224 17.296 9.7136C15.1264 11.0192 13.8496 13.0736 13.4656 15.8768C13.408 16.3184 13.3792 16.856 13.3792 17.4896C13.3792 18.1232 13.4944 18.8336 13.7248 19.6208C14.0512 20.792 14.6944 21.848 15.6544 22.7888C16.5952 23.7296 17.776 24.3728 19.1968 24.7184C19.792 22.5296 20.6944 20.4848 21.904 18.584C23.1136 16.664 24.64 15.0704 26.4832 13.8032C28.3264 12.5168 30.2656 11.8736 32.3008 11.8736C34.0672 11.8736 35.1424 12.584 35.5264 14.0048C35.6416 14.3696 35.6992 14.7536 35.6992 15.1568C35.6992 16.328 35.2576 17.624 34.3744 19.0448C32.992 21.3296 30.976 23.0672 28.3264 24.2576C26.2528 25.1984 24.016 25.6688 21.616 25.6688H21.04C20.6368 27.0896 20.4352 28.4624 20.4352 29.7872C20.4352 32.2832 21.0688 34.0112 22.336 34.9712C22.5088 33.3968 22.912 31.9184 23.5456 30.536C24.1792 29.1536 25.0528 27.992 26.1664 27.0512C27.2992 26.1104 28.5472 25.64 29.9104 25.64C31.4848 25.64 32.464 26.3408 32.848 27.7424C32.944 28.1264 32.992 28.52 32.992 28.9232C32.992 29.9792 32.656 31.112 31.984 32.3216C30.928 34.184 29.4592 35.4512 27.5776 36.1232C26.2144 36.584 24.8608 36.6608 23.5168 36.3536C23.4976 36.6032 23.488 36.8528 23.488 37.1024C23.488 38.504 23.7856 39.6848 24.3808 40.6448C25.0528 41.7776 26.1472 42.344 27.664 42.344C27.6064 42.7088 27.2896 42.8912 26.7136 42.8912C25.1776 42.8912 24.0448 42.2576 23.3152 40.9904C22.6048 39.7232 22.2496 38.2256 22.2496 36.4976C22.2496 36.3056 22.2496 36.1232 22.2496 35.9504C20.5984 35.24 19.504 33.8768 18.9664 31.8608C18.6976 30.9008 18.5632 29.8832 18.5632 28.808C18.5632 27.7328 18.7168 26.5904 19.024 25.3808C17.68 25.0736 16.5184 24.5168 15.5392 23.7104C14.56 22.904 13.8592 21.9824 13.4368 20.9456C12.88 19.5824 12.6016 18.3248 12.6016 17.1728C12.6016 16.0208 12.784 14.936 13.1488 13.9184C13.5136 12.9008 14.0416 11.9408 14.7328 11.0384C15.4048 10.1168 16.3168 9.3776 17.4688 8.8208C18.6208 8.2448 19.888 7.9568 21.2704 7.9568C23.9968 7.9568 25.8592 9.0128 26.8576 11.1248C26.9728 11.3552 26.8384 11.5088 26.4544 11.5856C25.9936 11.624 25.7056 11.5184 25.5904 11.2688C25.0144 9.5408 23.5648 8.6768 21.2416 8.6768ZM31.9264 12.6224C30.832 12.6224 29.7184 12.9872 28.5856 13.7168C27.472 14.4272 26.4544 15.368 25.5328 16.5392C23.5744 19.0352 22.144 21.848 21.2416 24.9776H21.6448C25.408 24.9776 28.576 23.7776 31.1488 21.3776C32.8576 19.784 33.904 18.0656 34.288 16.2224C34.3648 15.8192 34.4032 15.4544 34.4032 15.128C34.4032 14.1296 34.0384 13.4096 33.3088 12.968C32.944 12.7376 32.4832 12.6224 31.9264 12.6224ZM30.1696 26.4176C28.6144 26.4176 27.1936 27.368 25.9072 29.2688C24.64 31.1696 23.8624 33.2816 23.5744 35.6048C24.0736 35.7584 24.6016 35.8352 25.1584 35.8352C27.2704 35.8352 29.0464 34.9136 30.4864 33.0704C31.6192 31.6496 32.1856 30.248 32.1856 28.8656C32.1856 27.4832 31.6864 26.6864 30.688 26.4752C30.5344 26.4368 30.3616 26.4176 30.1696 26.4176Z" fill="white"/>
<defs>
<linearGradient id="paint0_linear" x1="-9.90213" y1="33.5888" x2="34.4828" y2="59.2145" gradientUnits="userSpaceOnUse">
<stop stop-color="#C2509C"/>
<stop offset="1" stop-color="#9E6AFF"/>
</linearGradient>
</defs>
</svg>
